<mxfile host="Electron" modified="2024-02-14T23:32:28.538Z" agent="Mozilla/5.0 (X11; Linux x86_64) AppleWebKit/537.36 (KHTML, like Gecko) draw.io/23.0.2 Chrome/120.0.6099.109 Electron/28.1.0 Safari/537.36" etag="YorMIwdZ3c3AyrzjcxHt" version="23.0.2" type="device">
  <diagram name="Page-1" id="pmxqWEK5HScmuoflYSER">
    <mxGraphModel dx="1505" dy="3109" grid="1" gridSize="10" guides="1" tooltips="1" connect="1" arrows="1" fold="1" page="1" pageScale="2" pageWidth="850" pageHeight="1100" math="0" shadow="0">
      <root>
        <mxCell id="0" />
        <mxCell id="1" parent="0" />
        <mxCell id="ISDHjY7t84PyQnfww6T6-1" value="&lt;font style=&quot;font-size: 32px;&quot;&gt;(A+B)*C&lt;/font&gt;" style="text;html=1;strokeColor=none;fillColor=none;align=center;verticalAlign=middle;whiteSpace=wrap;rounded=0;" vertex="1" parent="1">
          <mxGeometry x="840" y="40" width="160" height="60" as="geometry" />
        </mxCell>
        <mxCell id="ISDHjY7t84PyQnfww6T6-2" value="&lt;font style=&quot;font-size: 32px;&quot;&gt;Expression:&lt;/font&gt;" style="text;html=1;strokeColor=none;fillColor=none;align=center;verticalAlign=middle;whiteSpace=wrap;rounded=0;" vertex="1" parent="1">
          <mxGeometry x="840" y="-10" width="160" height="53" as="geometry" />
        </mxCell>
        <mxCell id="ISDHjY7t84PyQnfww6T6-12" style="edgeStyle=orthogonalEdgeStyle;rounded=0;orthogonalLoop=1;jettySize=auto;html=1;entryX=0.5;entryY=0;entryDx=0;entryDy=0;" edge="1" parent="1" source="ISDHjY7t84PyQnfww6T6-9" target="ISDHjY7t84PyQnfww6T6-11">
          <mxGeometry relative="1" as="geometry" />
        </mxCell>
        <mxCell id="ISDHjY7t84PyQnfww6T6-9" value="&lt;font style=&quot;font-size: 23px;&quot;&gt;Expression&lt;/font&gt;" style="rounded=1;whiteSpace=wrap;html=1;shadow=0;glass=0;" vertex="1" parent="1">
          <mxGeometry x="840" y="120" width="160" height="80" as="geometry" />
        </mxCell>
        <mxCell id="ISDHjY7t84PyQnfww6T6-20" style="edgeStyle=orthogonalEdgeStyle;rounded=0;orthogonalLoop=1;jettySize=auto;html=1;exitX=0;exitY=0.5;exitDx=0;exitDy=0;entryX=0.5;entryY=0;entryDx=0;entryDy=0;" edge="1" parent="1" source="ISDHjY7t84PyQnfww6T6-11" target="ISDHjY7t84PyQnfww6T6-13">
          <mxGeometry relative="1" as="geometry" />
        </mxCell>
        <mxCell id="ISDHjY7t84PyQnfww6T6-24" style="edgeStyle=orthogonalEdgeStyle;rounded=0;orthogonalLoop=1;jettySize=auto;html=1;entryX=0.5;entryY=0;entryDx=0;entryDy=0;" edge="1" parent="1" source="ISDHjY7t84PyQnfww6T6-11">
          <mxGeometry relative="1" as="geometry">
            <mxPoint x="920" y="360" as="targetPoint" />
          </mxGeometry>
        </mxCell>
        <mxCell id="ISDHjY7t84PyQnfww6T6-11" value="&lt;font style=&quot;font-size: 23px;&quot;&gt;Term&lt;/font&gt;" style="rounded=1;whiteSpace=wrap;html=1;shadow=0;glass=0;" vertex="1" parent="1">
          <mxGeometry x="840" y="240" width="160" height="80" as="geometry" />
        </mxCell>
        <mxCell id="ISDHjY7t84PyQnfww6T6-34" style="edgeStyle=orthogonalEdgeStyle;rounded=0;orthogonalLoop=1;jettySize=auto;html=1;entryX=0.5;entryY=0;entryDx=0;entryDy=0;" edge="1" parent="1" source="ISDHjY7t84PyQnfww6T6-13" target="ISDHjY7t84PyQnfww6T6-31">
          <mxGeometry relative="1" as="geometry" />
        </mxCell>
        <mxCell id="ISDHjY7t84PyQnfww6T6-13" value="&lt;font style=&quot;font-size: 23px;&quot;&gt;Term&lt;/font&gt;" style="rounded=1;whiteSpace=wrap;html=1;shadow=0;glass=0;" vertex="1" parent="1">
          <mxGeometry x="680" y="360" width="160" height="80" as="geometry" />
        </mxCell>
        <mxCell id="ISDHjY7t84PyQnfww6T6-27" style="edgeStyle=orthogonalEdgeStyle;rounded=0;orthogonalLoop=1;jettySize=auto;html=1;entryX=0.5;entryY=0;entryDx=0;entryDy=0;" edge="1" parent="1" source="ISDHjY7t84PyQnfww6T6-14">
          <mxGeometry relative="1" as="geometry">
            <mxPoint x="1079.9999999999998" y="480" as="targetPoint" />
          </mxGeometry>
        </mxCell>
        <mxCell id="ISDHjY7t84PyQnfww6T6-14" value="&lt;font style=&quot;&quot;&gt;&lt;font style=&quot;font-size: 23px;&quot;&gt;Factor&lt;/font&gt;&lt;br&gt;&lt;/font&gt;" style="rounded=1;whiteSpace=wrap;html=1;shadow=0;glass=0;" vertex="1" parent="1">
          <mxGeometry x="1000" y="360" width="160" height="80" as="geometry" />
        </mxCell>
        <mxCell id="ISDHjY7t84PyQnfww6T6-23" style="edgeStyle=orthogonalEdgeStyle;rounded=0;orthogonalLoop=1;jettySize=auto;html=1;exitX=0;exitY=0.5;exitDx=0;exitDy=0;entryX=0.5;entryY=0;entryDx=0;entryDy=0;" edge="1" parent="1">
          <mxGeometry relative="1" as="geometry">
            <mxPoint x="1000" y="280.00275862068975" as="sourcePoint" />
            <mxPoint x="1080" y="360.00275862068975" as="targetPoint" />
          </mxGeometry>
        </mxCell>
        <mxCell id="ISDHjY7t84PyQnfww6T6-30" value="&lt;font style=&quot;font-size: 39px;&quot;&gt;*&lt;/font&gt;" style="ellipse;whiteSpace=wrap;html=1;aspect=fixed;" vertex="1" parent="1">
          <mxGeometry x="880" y="360" width="80" height="80" as="geometry" />
        </mxCell>
        <mxCell id="ISDHjY7t84PyQnfww6T6-35" style="edgeStyle=orthogonalEdgeStyle;rounded=0;orthogonalLoop=1;jettySize=auto;html=1;entryX=0.5;entryY=0;entryDx=0;entryDy=0;" edge="1" parent="1" source="ISDHjY7t84PyQnfww6T6-31" target="ISDHjY7t84PyQnfww6T6-33">
          <mxGeometry relative="1" as="geometry" />
        </mxCell>
        <mxCell id="ISDHjY7t84PyQnfww6T6-31" value="&lt;font style=&quot;font-size: 23px;&quot;&gt;Factor&lt;/font&gt;" style="rounded=1;whiteSpace=wrap;html=1;shadow=0;glass=0;" vertex="1" parent="1">
          <mxGeometry x="680" y="480" width="160" height="80" as="geometry" />
        </mxCell>
        <mxCell id="ISDHjY7t84PyQnfww6T6-51" style="edgeStyle=orthogonalEdgeStyle;rounded=0;orthogonalLoop=1;jettySize=auto;html=1;" edge="1" parent="1" source="ISDHjY7t84PyQnfww6T6-33">
          <mxGeometry relative="1" as="geometry">
            <mxPoint x="760" y="760" as="targetPoint" />
          </mxGeometry>
        </mxCell>
        <mxCell id="ISDHjY7t84PyQnfww6T6-55" style="edgeStyle=orthogonalEdgeStyle;rounded=0;orthogonalLoop=1;jettySize=auto;html=1;exitX=0.25;exitY=1;exitDx=0;exitDy=0;entryX=0.5;entryY=0;entryDx=0;entryDy=0;" edge="1" parent="1" source="ISDHjY7t84PyQnfww6T6-33" target="ISDHjY7t84PyQnfww6T6-47">
          <mxGeometry relative="1" as="geometry" />
        </mxCell>
        <mxCell id="ISDHjY7t84PyQnfww6T6-56" style="edgeStyle=orthogonalEdgeStyle;rounded=0;orthogonalLoop=1;jettySize=auto;html=1;exitX=0.75;exitY=1;exitDx=0;exitDy=0;entryX=0.5;entryY=0;entryDx=0;entryDy=0;" edge="1" parent="1" source="ISDHjY7t84PyQnfww6T6-33">
          <mxGeometry relative="1" as="geometry">
            <mxPoint x="920" y="760" as="targetPoint" />
          </mxGeometry>
        </mxCell>
        <mxCell id="ISDHjY7t84PyQnfww6T6-33" value="&lt;font style=&quot;font-size: 23px;&quot;&gt;Expression&lt;/font&gt;" style="rounded=1;whiteSpace=wrap;html=1;shadow=0;glass=0;" vertex="1" parent="1">
          <mxGeometry x="680" y="600" width="160" height="80" as="geometry" />
        </mxCell>
        <mxCell id="ISDHjY7t84PyQnfww6T6-36" value="&lt;font style=&quot;font-size: 39px;&quot;&gt;(&lt;/font&gt;" style="ellipse;whiteSpace=wrap;html=1;aspect=fixed;" vertex="1" parent="1">
          <mxGeometry x="560" y="600" width="80" height="80" as="geometry" />
        </mxCell>
        <mxCell id="ISDHjY7t84PyQnfww6T6-37" value="&lt;font style=&quot;font-size: 39px;&quot;&gt;)&lt;/font&gt;" style="ellipse;whiteSpace=wrap;html=1;aspect=fixed;" vertex="1" parent="1">
          <mxGeometry x="880" y="600" width="80" height="80" as="geometry" />
        </mxCell>
        <mxCell id="ISDHjY7t84PyQnfww6T6-38" style="edgeStyle=orthogonalEdgeStyle;rounded=0;orthogonalLoop=1;jettySize=auto;html=1;exitX=0;exitY=0.5;exitDx=0;exitDy=0;entryX=0.5;entryY=0;entryDx=0;entryDy=0;" edge="1" parent="1">
          <mxGeometry relative="1" as="geometry">
            <mxPoint x="680" y="520" as="sourcePoint" />
            <mxPoint x="600" y="600" as="targetPoint" />
          </mxGeometry>
        </mxCell>
        <mxCell id="ISDHjY7t84PyQnfww6T6-39" style="edgeStyle=orthogonalEdgeStyle;rounded=0;orthogonalLoop=1;jettySize=auto;html=1;exitX=0;exitY=0.5;exitDx=0;exitDy=0;entryX=0.5;entryY=0;entryDx=0;entryDy=0;" edge="1" parent="1">
          <mxGeometry relative="1" as="geometry">
            <mxPoint x="840" y="520.0027586206897" as="sourcePoint" />
            <mxPoint x="920" y="600.0027586206897" as="targetPoint" />
          </mxGeometry>
        </mxCell>
        <mxCell id="ISDHjY7t84PyQnfww6T6-58" style="edgeStyle=orthogonalEdgeStyle;rounded=0;orthogonalLoop=1;jettySize=auto;html=1;entryX=0.5;entryY=0;entryDx=0;entryDy=0;" edge="1" parent="1" source="ISDHjY7t84PyQnfww6T6-47" target="ISDHjY7t84PyQnfww6T6-57">
          <mxGeometry relative="1" as="geometry" />
        </mxCell>
        <mxCell id="ISDHjY7t84PyQnfww6T6-47" value="&lt;font style=&quot;font-size: 23px;&quot;&gt;Expression&lt;/font&gt;" style="rounded=1;whiteSpace=wrap;html=1;shadow=0;glass=0;" vertex="1" parent="1">
          <mxGeometry x="520" y="760" width="160" height="80" as="geometry" />
        </mxCell>
        <mxCell id="ISDHjY7t84PyQnfww6T6-50" value="&lt;font style=&quot;font-size: 39px;&quot;&gt;+&lt;/font&gt;" style="ellipse;whiteSpace=wrap;html=1;aspect=fixed;" vertex="1" parent="1">
          <mxGeometry x="720" y="760" width="80" height="80" as="geometry" />
        </mxCell>
        <mxCell id="ISDHjY7t84PyQnfww6T6-61" style="edgeStyle=orthogonalEdgeStyle;rounded=0;orthogonalLoop=1;jettySize=auto;html=1;entryX=0.5;entryY=0;entryDx=0;entryDy=0;" edge="1" parent="1" source="ISDHjY7t84PyQnfww6T6-57">
          <mxGeometry relative="1" as="geometry">
            <mxPoint x="600" y="1000" as="targetPoint" />
          </mxGeometry>
        </mxCell>
        <mxCell id="ISDHjY7t84PyQnfww6T6-57" value="&lt;font style=&quot;font-size: 23px;&quot;&gt;Term&lt;/font&gt;" style="rounded=1;whiteSpace=wrap;html=1;shadow=0;glass=0;" vertex="1" parent="1">
          <mxGeometry x="520" y="880" width="160" height="80" as="geometry" />
        </mxCell>
        <mxCell id="ISDHjY7t84PyQnfww6T6-64" style="edgeStyle=orthogonalEdgeStyle;rounded=0;orthogonalLoop=1;jettySize=auto;html=1;entryX=0.5;entryY=0;entryDx=0;entryDy=0;" edge="1" parent="1" source="ISDHjY7t84PyQnfww6T6-62" target="ISDHjY7t84PyQnfww6T6-63">
          <mxGeometry relative="1" as="geometry" />
        </mxCell>
        <mxCell id="ISDHjY7t84PyQnfww6T6-62" value="&lt;font style=&quot;font-size: 23px;&quot;&gt;Factor&lt;/font&gt;" style="rounded=1;whiteSpace=wrap;html=1;shadow=0;glass=0;" vertex="1" parent="1">
          <mxGeometry x="520" y="1000" width="160" height="80" as="geometry" />
        </mxCell>
        <mxCell id="ISDHjY7t84PyQnfww6T6-63" value="&lt;font style=&quot;font-size: 39px;&quot;&gt;A&lt;/font&gt;" style="ellipse;whiteSpace=wrap;html=1;aspect=fixed;" vertex="1" parent="1">
          <mxGeometry x="560" y="1120" width="80" height="80" as="geometry" />
        </mxCell>
        <mxCell id="ISDHjY7t84PyQnfww6T6-65" value="&lt;font style=&quot;font-size: 39px;&quot;&gt;C&lt;/font&gt;" style="ellipse;whiteSpace=wrap;html=1;aspect=fixed;" vertex="1" parent="1">
          <mxGeometry x="1040" y="480" width="80" height="80" as="geometry" />
        </mxCell>
        <mxCell id="ISDHjY7t84PyQnfww6T6-66" style="edgeStyle=orthogonalEdgeStyle;rounded=0;orthogonalLoop=1;jettySize=auto;html=1;entryX=0.5;entryY=0;entryDx=0;entryDy=0;" edge="1" source="ISDHjY7t84PyQnfww6T6-67" parent="1">
          <mxGeometry relative="1" as="geometry">
            <mxPoint x="920" y="880" as="targetPoint" />
          </mxGeometry>
        </mxCell>
        <mxCell id="ISDHjY7t84PyQnfww6T6-67" value="&lt;font style=&quot;font-size: 23px;&quot;&gt;Term&lt;/font&gt;" style="rounded=1;whiteSpace=wrap;html=1;shadow=0;glass=0;" vertex="1" parent="1">
          <mxGeometry x="840" y="760" width="160" height="80" as="geometry" />
        </mxCell>
        <mxCell id="ISDHjY7t84PyQnfww6T6-68" style="edgeStyle=orthogonalEdgeStyle;rounded=0;orthogonalLoop=1;jettySize=auto;html=1;entryX=0.5;entryY=0;entryDx=0;entryDy=0;" edge="1" source="ISDHjY7t84PyQnfww6T6-69" target="ISDHjY7t84PyQnfww6T6-70" parent="1">
          <mxGeometry relative="1" as="geometry" />
        </mxCell>
        <mxCell id="ISDHjY7t84PyQnfww6T6-69" value="&lt;font style=&quot;font-size: 23px;&quot;&gt;Factor&lt;/font&gt;" style="rounded=1;whiteSpace=wrap;html=1;shadow=0;glass=0;" vertex="1" parent="1">
          <mxGeometry x="840" y="880" width="160" height="80" as="geometry" />
        </mxCell>
        <mxCell id="ISDHjY7t84PyQnfww6T6-70" value="&lt;font style=&quot;font-size: 39px;&quot;&gt;B&lt;/font&gt;" style="ellipse;whiteSpace=wrap;html=1;aspect=fixed;" vertex="1" parent="1">
          <mxGeometry x="880" y="1000" width="80" height="80" as="geometry" />
        </mxCell>
      </root>
    </mxGraphModel>
  </diagram>
</mxfile>
